<svg width="123" height="55" viewBox="0 0 123 55" fill="none" xmlns="http://www.w3.org/2000/svg">
<path d="M18.587 36.317H9.15505L7.64305 40.781H1.19905L10.343 15.509H17.471L26.615 40.781H20.099L18.587 36.317ZM17.003 31.565L13.871 22.313L10.775 31.565H17.003ZM35.554 14.141V40.781H29.398V14.141H35.554ZM50.0952 25.805H46.7832V40.781H40.6272V25.805H38.3952V20.693H40.6272V20.117C40.6272 17.645 41.3352 15.773 42.7512 14.501C44.1672 13.205 46.2432 12.557 48.9792 12.557C49.4352 12.557 49.7712 12.569 49.9872 12.593V17.813C48.8112 17.741 47.9832 17.909 47.5032 18.317C47.0232 18.725 46.7832 19.457 46.7832 20.513V20.693H50.0952V25.805ZM59.1439 24.041C59.8639 22.937 60.7639 22.073 61.8439 21.449C62.9239 20.801 64.1239 20.477 65.4439 20.477V26.993H63.7519C62.2159 26.993 61.0639 27.329 60.2959 28.001C59.5279 28.649 59.1439 29.801 59.1439 31.457V40.781H52.9879V20.693H59.1439V24.041ZM87.3223 30.413C87.3223 30.989 87.2863 31.589 87.2143 32.213H73.2823C73.3783 33.461 73.7743 34.421 74.4703 35.093C75.1903 35.741 76.0663 36.065 77.0983 36.065C78.6343 36.065 79.7023 35.417 80.3023 34.121H86.8543C86.5183 35.441 85.9063 36.629 85.0183 37.685C84.1543 38.741 83.0623 39.569 81.7423 40.169C80.4223 40.769 78.9463 41.069 77.3143 41.069C75.3463 41.069 73.5943 40.649 72.0583 39.809C70.5223 38.969 69.3223 37.769 68.4583 36.209C67.5943 34.649 67.1623 32.825 67.1623 30.737C67.1623 28.649 67.5823 26.825 68.4223 25.265C69.2863 23.705 70.4863 22.505 72.0223 21.665C73.5583 20.825 75.3223 20.405 77.3143 20.405C79.2583 20.405 80.9863 20.813 82.4983 21.629C84.0103 22.445 85.1863 23.609 86.0263 25.121C86.8903 26.633 87.3223 28.397 87.3223 30.413ZM81.0223 28.793C81.0223 27.737 80.6623 26.897 79.9423 26.273C79.2223 25.649 78.3223 25.337 77.2423 25.337C76.2103 25.337 75.3343 25.637 74.6143 26.237C73.9183 26.837 73.4863 27.689 73.3183 28.793H81.0223ZM89.3459 30.701C89.3459 28.637 89.7299 26.825 90.4979 25.265C91.2899 23.705 92.3579 22.505 93.7019 21.665C95.0459 20.825 96.5459 20.405 98.2019 20.405C99.5219 20.405 100.722 20.681 101.802 21.233C102.906 21.785 103.77 22.529 104.394 23.465V14.141H110.55V40.781H104.394V37.901C103.818 38.861 102.99 39.629 101.91 40.205C100.854 40.781 99.6179 41.069 98.2019 41.069C96.5459 41.069 95.0459 40.649 93.7019 39.809C92.3579 38.945 91.2899 37.733 90.4979 36.173C89.7299 34.589 89.3459 32.765 89.3459 30.701ZM104.394 30.737C104.394 29.201 103.962 27.989 103.098 27.101C102.258 26.213 101.226 25.769 100.002 25.769C98.7779 25.769 97.7339 26.213 96.8699 27.101C96.0299 27.965 95.6099 29.165 95.6099 30.701C95.6099 32.237 96.0299 33.461 96.8699 34.373C97.7339 35.261 98.7779 35.705 100.002 35.705C101.226 35.705 102.258 35.261 103.098 34.373C103.962 33.485 104.394 32.273 104.394 30.737ZM117.883 41.069C116.803 41.069 115.915 40.757 115.219 40.133C114.547 39.485 114.211 38.693 114.211 37.757C114.211 36.797 114.547 35.993 115.219 35.345C115.915 34.697 116.803 34.373 117.883 34.373C118.939 34.373 119.803 34.697 120.475 35.345C121.171 35.993 121.519 36.797 121.519 37.757C121.519 38.693 121.171 39.485 120.475 40.133C119.803 40.757 118.939 41.069 117.883 41.069Z" fill="#DADADA" fill-opacity="0.3"/>
</svg>
